<svg width="620" height="699" viewBox="0 0 620 699" fill="none" xmlns="http://www.w3.org/2000/svg">
<g clip-path="url(#clip0_2608_80940)">
<g opacity="0.2">
<rect x="0.102661" y="-74.3377" width="107" height="107" transform="rotate(45 0.102661 -74.3377)" stroke="white"/>
<rect x="0.102661" y="78.3974" width="107" height="107" transform="rotate(45 0.102661 78.3974)" stroke="white"/>
<rect x="152.838" y="-74.3377" width="107" height="107" transform="rotate(45 152.838 -74.3377)" stroke="white"/>
<rect x="152.838" y="78.3974" width="107" height="107" transform="rotate(45 152.838 78.3974)" stroke="white"/>
<rect x="152.838" y="231.132" width="107" height="107" transform="rotate(45 152.838 231.132)" stroke="white"/>
<rect x="305.573" y="-74.3377" width="107" height="107" transform="rotate(45 305.573 -74.3377)" stroke="white"/>
<rect x="305.573" y="231.132" width="107" height="107" transform="rotate(45 305.573 231.132)" stroke="white"/>
</g>
<g opacity="0.2">
<rect x="391.368" y="394.457" width="107" height="107" transform="rotate(45 391.368 394.457)" stroke="white"/>
<rect x="391.368" y="547.192" width="107" height="107" transform="rotate(45 391.368 547.192)" stroke="white"/>
<rect x="544.103" y="394.457" width="107" height="107" transform="rotate(45 544.103 394.457)" stroke="white"/>
<rect x="544.103" y="547.192" width="107" height="107" transform="rotate(45 544.103 547.192)" stroke="white"/>
</g>
</g>
<defs>
<clipPath id="clip0_2608_80940">
<rect width="620" height="699" fill="white"/>
</clipPath>
</defs>
</svg>
